<svg xmlns="http://www.w3.org/2000/svg" viewBox="0 0 64 64"><style>path{fill:#000}@media (prefers-color-scheme:dark){path{fill:#fff}}</style><path d="M61.71 29.33c-1.32-4.48-3.22-8.41-5.58-11.75A8.973 8.973 0 0 0 59 11a9 9 0 0 0-16.91-4.3C38.97 5.59 35.6 5 32.04 5c-3.87 0-7.54.74-10.93 2.11A8.99 8.99 0 0 0 13 2a9 9 0 0 0-9 9c0 2.92 1.4 5.51 3.56 7.16-2.23 3.23-4.03 6.97-5.27 11.18C-.12 37.55.86 45.17 5.07 50.78 8.56 55.44 16.07 61 32 61c8.79 0 20.61-1.77 26.93-10.22 4.2-5.62 5.19-13.23 2.78-21.45zM32 58C7.14 58 1.08 44.11 5.17 30.18 9.18 16.53 19.21 8 32.04 8s22.78 8.53 26.79 22.18C62.92 44.11 56.86 58 32 58z"/><path d="M32 39c-6.22 0-7.73 2.58-6.71 5.49 1 2.86 3.5 4.51 6.71 4.51s5.7-1.65 6.71-4.51C39.73 41.58 38.22 39 32 39zM51.14 25.8c-2.34-3.32-5.29-7.04-11.58-5.41-5 1.3-5.29 6.89-3.71 10.89 2.4 6.1 10.86 12.23 16.59 8.64 5.33-3.31 1.05-10.79-1.3-14.12zM45 33c-1.1 0-2-.9-2-2s.9-2 2-2 2 .9 2 2-.9 2-2 2zM24.44 20.4c-6.3-1.63-9.24 2.08-11.58 5.41-2.34 3.32-6.62 10.81-1.3 14.13 5.74 3.59 14.19-2.54 16.59-8.64 1.58-4.02 1.29-9.61-3.71-10.9zM19 33c-1.1 0-2-.9-2-2s.9-2 2-2 2 .9 2 2-.9 2-2 2zM37 52.61c0 1.32-2.24 2.39-5 2.39s-5-1.07-5-2.39 2.24-.09 5-.09 5-1.23 5 .09z"/></svg>